<svg width="520" height="160" viewBox="0 0 520 160" fill="none" xmlns="http://www.w3.org/2000/svg">
<path d="M89.8158 77.0467L68.5982 78.3524C68.2365 76.539 67.4557 74.907 66.2599 73.4561C65.062 71.9693 63.4854 70.7905 61.5257 69.9201C59.6044 69.0135 57.3001 68.56 54.617 68.56C51.0276 68.56 47.9977 69.3218 45.5317 70.845C43.0657 72.3318 41.8337 74.3266 41.8337 76.8292C41.8337 78.8239 42.6316 80.5104 44.2274 81.8885C45.8232 83.2666 48.5616 84.3728 52.4404 85.2071L67.5642 88.2535C75.6899 89.9219 81.7454 92.6056 85.7349 96.305C89.7243 100.004 91.7201 104.864 91.7201 110.885C91.7201 116.361 90.1052 121.167 86.8775 125.301C83.6859 129.435 79.2985 132.663 73.7133 134.984C68.1642 137.269 61.7619 138.412 54.5085 138.412C43.4465 138.412 34.6335 136.11 28.0695 131.503C21.5417 126.861 17.7139 120.55 16.5905 112.571L39.3847 111.374C40.0741 114.747 41.7422 117.322 44.3891 119.099C47.0381 120.84 50.4276 121.711 54.5638 121.711C58.6257 121.711 61.8896 120.931 64.3556 119.371C66.8578 117.776 68.128 115.726 68.1642 113.224C68.128 111.12 67.2386 109.398 65.4982 108.056C63.7577 106.678 61.0725 105.626 57.4469 104.9L42.9763 102.017C34.8144 100.385 28.7397 97.5561 24.7503 93.5305C20.797 89.5046 18.8204 84.3728 18.8204 78.1348C18.8204 72.7672 20.2714 68.143 23.1736 64.2623C26.1099 60.3817 30.227 57.3895 35.5229 55.2861C40.8528 53.1824 47.0913 52.1307 54.2362 52.1307C64.7896 52.1307 73.0963 54.3612 79.1517 58.8221C85.2455 63.2831 88.7988 69.3579 89.8158 77.0467ZM144.394 138.412C135.798 138.412 128.4 136.671 122.198 133.188C116.031 129.671 111.282 124.703 107.944 118.283C104.608 111.828 102.94 104.193 102.94 95.3801C102.94 86.7846 104.608 79.241 107.944 72.7489C111.282 66.257 115.978 61.1977 122.034 57.5708C128.127 53.9441 135.272 52.1307 143.468 52.1307C148.981 52.1307 154.113 53.0192 158.864 54.7965C163.652 56.5372 167.822 59.1666 171.378 62.6846C174.967 66.2025 177.761 70.6273 179.754 75.9588C181.75 81.2538 182.748 87.4557 182.748 94.5641V100.929H112.189V86.5671H160.933C160.933 83.2304 160.207 80.2746 158.756 77.6997C157.305 75.1245 155.292 73.1116 152.718 71.661C150.179 70.1739 147.224 69.4305 143.849 69.4305C140.332 69.4305 137.213 70.2465 134.494 71.8786C131.808 73.4744 129.706 75.6324 128.183 78.3524C126.659 81.0361 125.879 84.0283 125.842 87.3286V100.983C125.842 105.118 126.604 108.69 128.128 111.701C129.687 114.711 131.881 117.032 134.711 118.664C137.538 120.296 140.894 121.112 144.775 121.112C147.349 121.112 149.707 120.75 151.847 120.024C153.988 119.299 155.818 118.211 157.341 116.76C158.864 115.309 160.026 113.532 160.824 111.429L182.257 112.843C181.169 117.993 178.939 122.49 175.567 126.335C172.229 130.144 167.914 133.116 162.618 135.256C157.36 137.361 151.286 138.412 144.394 138.412ZM221.047 88.4712V136.78H197.872V53.2188H219.958V67.9615H220.936C222.787 63.1018 225.888 59.2572 230.241 56.4284C234.592 53.5633 239.869 52.1307 246.071 52.1307C251.873 52.1307 256.933 53.4001 261.248 55.9389C265.565 58.4776 268.921 62.1043 271.314 66.8191C273.708 71.4978 274.904 77.083 274.904 83.5749V136.78H251.729V87.7095C251.765 82.5957 250.458 78.6063 247.812 75.7411C245.165 72.8397 241.52 71.3888 236.877 71.3888C233.758 71.3888 231.003 72.0599 228.609 73.4019C226.251 74.7436 224.4 76.7022 223.06 79.2771C221.753 81.8159 221.083 84.8807 221.047 88.4712ZM292.734 136.78V122.962L333.644 72.3138V71.7154H294.149V53.2188H361.553V68.2881L323.145 117.685V118.283H362.968V136.78H292.734ZM380.687 136.78V53.2188H403.862V136.78H380.687ZM392.33 42.4472C388.885 42.4472 385.928 41.3046 383.462 39.0199C381.032 36.6988 379.817 33.9242 379.817 30.6963C379.817 27.5047 381.032 24.7665 383.462 22.4816C385.928 20.1605 388.885 19 392.33 19C395.775 19 398.713 20.1605 401.143 22.4816C403.609 24.7665 404.843 27.5047 404.843 30.6963C404.843 33.9242 403.609 36.6988 401.143 39.0199C398.713 41.3046 395.775 42.4472 392.33 42.4472ZM460.183 138.412C451.732 138.412 444.425 136.616 438.259 133.027C432.129 129.399 427.397 124.358 424.061 117.902C420.723 111.411 419.054 103.885 419.054 95.3256C419.054 86.6939 420.723 79.1503 424.061 72.6946C427.397 66.2025 432.129 61.1613 438.259 57.5708C444.425 53.9441 451.732 52.1307 460.183 52.1307C468.632 52.1307 475.924 53.9441 482.052 57.5708C488.218 61.1613 492.969 66.2025 496.305 72.6946C499.642 79.1503 501.31 86.6939 501.31 95.3256C501.31 103.885 499.642 111.411 496.305 117.902C492.969 124.358 488.218 129.399 482.052 133.027C475.924 136.616 468.632 138.412 460.183 138.412ZM460.292 120.459C464.136 120.459 467.345 119.371 469.922 117.195C472.496 114.983 474.437 111.973 475.741 108.165C477.084 104.357 477.754 100.022 477.754 95.1625C477.754 90.3025 477.084 85.9686 475.741 82.1604C474.437 78.3524 472.496 75.3421 469.922 73.1297C467.345 70.9175 464.136 69.8113 460.292 69.8113C456.411 69.8113 453.147 70.9175 450.5 73.1297C447.889 75.3421 445.913 78.3524 444.57 82.1604C443.264 85.9686 442.61 90.3025 442.61 95.1625C442.61 100.022 443.264 104.357 444.57 108.165C445.913 111.973 447.889 114.983 450.5 117.195C453.147 119.371 456.411 120.459 460.292 120.459Z" fill="#1B9E75" fill-opacity="0.82"/>
<path d="M91.9436 77.0467L70.726 78.3524C70.3643 76.539 69.5834 74.907 68.3876 73.4561C67.1897 71.9693 65.6131 70.7905 63.6535 69.9201C61.7321 69.0135 59.4278 68.56 56.7447 68.56C53.1553 68.56 50.1254 69.3218 47.6594 70.845C45.1934 72.3318 43.9614 74.3266 43.9614 76.8292C43.9614 78.8239 44.7593 80.5104 46.3551 81.8885C47.9509 83.2666 50.6893 84.3728 54.5681 85.2071L69.6919 88.2535C77.8177 89.9219 83.8731 92.6056 87.8626 96.305C91.8521 100.004 93.8479 104.864 93.8479 110.885C93.8479 116.361 92.2329 121.167 89.0052 125.301C85.8136 129.435 81.4263 132.663 75.841 134.984C70.2919 137.269 63.8896 138.412 56.6362 138.412C45.5742 138.412 36.7613 136.11 30.1973 131.503C23.6694 126.861 19.8417 120.55 18.7182 112.571L41.5124 111.374C42.2018 114.747 43.87 117.322 46.5168 119.099C49.1658 120.84 52.5553 121.711 56.6916 121.711C60.7534 121.711 64.0173 120.931 66.4833 119.371C68.9855 117.776 70.2558 115.726 70.2919 113.224C70.2558 111.12 69.3664 109.398 67.6259 108.056C65.8854 106.678 63.2002 105.626 59.5746 104.9L45.104 102.017C36.9421 100.385 30.8675 97.5561 26.878 93.5305C22.9247 89.5046 20.9481 84.3728 20.9481 78.1348C20.9481 72.7672 22.3992 68.143 25.3014 64.2623C28.2376 60.3817 32.3547 57.3895 37.6506 55.2861C42.9806 53.1824 49.219 52.1307 56.3639 52.1307C66.9174 52.1307 75.224 54.3612 81.2795 58.8221C87.3732 63.2831 90.9265 69.3579 91.9436 77.0467ZM146.522 138.412C137.926 138.412 130.528 136.671 124.325 133.188C118.159 129.671 113.41 124.703 110.072 118.283C106.735 111.828 105.067 104.193 105.067 95.3801C105.067 86.7846 106.735 79.241 110.072 72.7489C113.41 66.257 118.106 61.1977 124.161 57.5708C130.255 53.9441 137.4 52.1307 145.596 52.1307C151.109 52.1307 156.241 53.0192 160.992 54.7965C165.78 56.5372 169.95 59.1666 173.505 62.6846C177.095 66.2025 179.888 70.6273 181.882 75.9588C183.878 81.2538 184.876 87.4557 184.876 94.5641V100.929H114.316V86.5671H163.06C163.06 83.2304 162.335 80.2746 160.884 77.6997C159.433 75.1245 157.42 73.1116 154.845 71.661C152.307 70.1739 149.351 69.4305 145.977 69.4305C142.46 69.4305 139.341 70.2465 136.621 71.8786C133.936 73.4744 131.834 75.6324 130.311 78.3524C128.787 81.0361 128.006 84.0283 127.97 87.3286V100.983C127.97 105.118 128.732 108.69 130.255 111.701C131.815 114.711 134.009 117.032 136.838 118.664C139.666 120.296 143.022 121.112 146.902 121.112C149.477 121.112 151.835 120.75 153.975 120.024C156.115 119.299 157.945 118.211 159.469 116.76C160.992 115.309 162.154 113.532 162.952 111.429L184.384 112.843C183.297 117.993 181.067 122.49 177.695 126.335C174.356 130.144 170.041 133.116 164.745 135.256C159.488 137.361 153.413 138.412 146.522 138.412ZM223.175 88.4712V136.78H200V53.2188H222.085V67.9615H223.064C224.915 63.1018 228.015 59.2572 232.369 56.4284C236.72 53.5633 241.996 52.1307 248.199 52.1307C254.001 52.1307 259.061 53.4001 263.376 55.9389C267.693 58.4776 271.048 62.1043 273.442 66.8191C275.836 71.4978 277.031 77.083 277.031 83.5749V136.78H253.856V87.7095C253.893 82.5957 252.586 78.6063 249.939 75.7411C247.292 72.8397 243.648 71.3888 239.005 71.3888C235.886 71.3888 233.13 72.0599 230.737 73.4019C228.379 74.7436 226.528 76.7022 225.188 79.2771C223.881 81.8159 223.211 84.8807 223.175 88.4712ZM294.862 136.78V122.962L335.771 72.3138V71.7154H296.277V53.2188H363.681V68.2881L325.273 117.685V118.283H365.095V136.78H294.862ZM382.815 136.78V53.2188H405.99V136.78H382.815ZM394.458 42.4472C391.013 42.4472 388.056 41.3046 385.59 39.0199C383.16 36.6988 381.945 33.9242 381.945 30.6963C381.945 27.5047 383.16 24.7665 385.59 22.4816C388.056 20.1605 391.013 19 394.458 19C397.903 19 400.841 20.1605 403.271 22.4816C405.737 24.7665 406.971 27.5047 406.971 30.6963C406.971 33.9242 405.737 36.6988 403.271 39.0199C400.841 41.3046 397.903 42.4472 394.458 42.4472ZM462.311 138.412C453.86 138.412 446.553 136.616 440.387 133.027C434.257 129.399 429.525 124.358 426.189 117.902C422.85 111.411 421.182 103.885 421.182 95.3256C421.182 86.6939 422.85 79.1503 426.189 72.6946C429.525 66.2025 434.257 61.1613 440.387 57.5708C446.553 53.9441 453.86 52.1307 462.311 52.1307C470.76 52.1307 478.052 53.9441 484.179 57.5708C490.346 61.1613 495.097 66.2025 498.433 72.6946C501.769 79.1503 503.437 86.6939 503.437 95.3256C503.437 103.885 501.769 111.411 498.433 117.902C495.097 124.358 490.346 129.399 484.179 133.027C478.052 136.616 470.76 138.412 462.311 138.412ZM462.419 120.459C466.264 120.459 469.473 119.371 472.049 117.195C474.624 114.983 476.564 111.973 477.869 108.165C479.211 104.357 479.882 100.022 479.882 95.1625C479.882 90.3025 479.211 85.9686 477.869 82.1604C476.564 78.3524 474.624 75.3421 472.049 73.1297C469.473 70.9175 466.264 69.8113 462.419 69.8113C458.538 69.8113 455.275 70.9175 452.628 73.1297C450.017 75.3421 448.04 78.3524 446.698 82.1604C445.391 85.9686 444.738 90.3025 444.738 95.1625C444.738 100.022 445.391 104.357 446.698 108.165C448.04 111.973 450.017 114.983 452.628 117.195C455.275 119.371 458.538 120.459 462.419 120.459Z" fill="#1B9E75" fill-opacity="0.2"/>
</svg>
