<svg width="520" height="160" viewBox="0 0 520 160" fill="none" xmlns="http://www.w3.org/2000/svg">
<path d="M180.023 77.9261L170.051 78.5398C169.881 77.6875 169.514 76.9205 168.952 76.2386C168.389 75.5398 167.648 74.9858 166.727 74.5767C165.824 74.1506 164.741 73.9375 163.48 73.9375C161.793 73.9375 160.369 74.2955 159.21 75.0114C158.051 75.7102 157.472 76.6477 157.472 77.8239C157.472 78.7614 157.847 79.554 158.597 80.2017C159.347 80.8494 160.634 81.3693 162.457 81.7614L169.565 83.1932C173.384 83.9773 176.23 85.2386 178.105 86.9773C179.98 88.7159 180.918 91 180.918 93.8295C180.918 96.4034 180.159 98.6619 178.642 100.605C177.142 102.548 175.08 104.065 172.455 105.156C169.847 106.23 166.838 106.767 163.429 106.767C158.23 106.767 154.088 105.685 151.003 103.52C147.935 101.338 146.136 98.3722 145.608 94.6222L156.321 94.0597C156.645 95.6449 157.429 96.8551 158.673 97.6903C159.918 98.5085 161.511 98.9176 163.455 98.9176C165.364 98.9176 166.898 98.5511 168.057 97.8182C169.233 97.0682 169.83 96.1051 169.847 94.929C169.83 93.9403 169.412 93.1307 168.594 92.5C167.776 91.8523 166.514 91.358 164.81 91.017L158.009 89.6619C154.173 88.8949 151.318 87.5653 149.443 85.6733C147.585 83.7812 146.656 81.3693 146.656 78.4375C146.656 75.9148 147.338 73.7415 148.702 71.9176C150.082 70.0938 152.017 68.6875 154.506 67.6989C157.011 66.7102 159.943 66.2159 163.301 66.2159C168.261 66.2159 172.165 67.2642 175.011 69.3608C177.875 71.4574 179.545 74.3125 180.023 77.9261ZM205.674 106.767C201.634 106.767 198.157 105.949 195.242 104.312C192.344 102.659 190.112 100.324 188.543 97.3068C186.975 94.2727 186.191 90.6847 186.191 86.5426C186.191 82.5028 186.975 78.9574 188.543 75.9062C190.112 72.8551 192.319 70.4773 195.165 68.7727C198.029 67.0682 201.387 66.2159 205.239 66.2159C207.83 66.2159 210.242 66.6335 212.475 67.4688C214.725 68.2869 216.685 69.5227 218.356 71.1761C220.043 72.8295 221.356 74.9091 222.293 77.4148C223.231 79.9034 223.7 82.8182 223.7 86.1591V89.1506H190.538V82.4006H213.447C213.447 80.8324 213.106 79.4432 212.424 78.233C211.742 77.0227 210.796 76.0767 209.586 75.3949C208.393 74.696 207.004 74.3466 205.418 74.3466C203.765 74.3466 202.299 74.7301 201.021 75.4972C199.759 76.2472 198.771 77.2614 198.055 78.5398C197.339 79.8011 196.972 81.2074 196.955 82.7585V89.1761C196.955 91.1193 197.313 92.7983 198.029 94.2131C198.762 95.6278 199.793 96.7188 201.123 97.4858C202.452 98.2528 204.029 98.6364 205.853 98.6364C207.063 98.6364 208.171 98.4659 209.177 98.125C210.183 97.7841 211.043 97.2727 211.759 96.5909C212.475 95.9091 213.021 95.0739 213.396 94.0852L223.469 94.75C222.958 97.1705 221.91 99.2841 220.325 101.091C218.756 102.881 216.728 104.278 214.239 105.284C211.768 106.273 208.913 106.767 205.674 106.767ZM241.7 83.2955V106H230.808V66.7273H241.188V73.6562H241.648C242.518 71.3722 243.975 69.5653 246.021 68.2358C248.066 66.8892 250.546 66.2159 253.461 66.2159C256.188 66.2159 258.566 66.8125 260.594 68.0057C262.623 69.1989 264.2 70.9034 265.325 73.1193C266.45 75.3182 267.012 77.9432 267.012 80.9943V106H256.12V82.9375C256.137 80.5341 255.523 78.6591 254.279 77.3125C253.035 75.9489 251.322 75.267 249.14 75.267C247.674 75.267 246.379 75.5824 245.254 76.2131C244.146 76.8437 243.276 77.7642 242.646 78.9744C242.032 80.1676 241.717 81.608 241.7 83.2955ZM275.392 106V99.5057L294.619 75.7017V75.4205H276.057V66.7273H307.736V73.8097L289.685 97.0256V97.3068H308.401V106H275.392ZM316.729 106V66.7273H327.621V106H316.729ZM322.201 61.6648C320.582 61.6648 319.192 61.1278 318.033 60.054C316.891 58.9631 316.32 57.6591 316.32 56.142C316.32 54.642 316.891 53.3551 318.033 52.2812C319.192 51.1903 320.582 50.6449 322.201 50.6449C323.82 50.6449 325.201 51.1903 326.343 52.2812C327.502 53.3551 328.082 54.642 328.082 56.142C328.082 57.6591 327.502 58.9631 326.343 60.054C325.201 61.1278 323.82 61.6648 322.201 61.6648ZM354.091 106.767C350.119 106.767 346.685 105.923 343.787 104.236C340.906 102.531 338.682 100.162 337.114 97.1278C335.545 94.0767 334.761 90.5398 334.761 86.517C334.761 82.4602 335.545 78.9148 337.114 75.8807C338.682 72.8295 340.906 70.4602 343.787 68.7727C346.685 67.0682 350.119 66.2159 354.091 66.2159C358.062 66.2159 361.489 67.0682 364.369 68.7727C367.267 70.4602 369.5 72.8295 371.068 75.8807C372.636 78.9148 373.42 82.4602 373.42 86.517C373.42 90.5398 372.636 94.0767 371.068 97.1278C369.5 100.162 367.267 102.531 364.369 104.236C361.489 105.923 358.062 106.767 354.091 106.767ZM354.142 98.3295C355.949 98.3295 357.457 97.8182 358.668 96.7955C359.878 95.7557 360.79 94.3409 361.403 92.5511C362.034 90.7614 362.349 88.7244 362.349 86.4403C362.349 84.1562 362.034 82.1193 361.403 80.3295C360.79 78.5398 359.878 77.125 358.668 76.0852C357.457 75.0455 355.949 74.5256 354.142 74.5256C352.318 74.5256 350.784 75.0455 349.54 76.0852C348.313 77.125 347.384 78.5398 346.753 80.3295C346.139 82.1193 345.832 84.1562 345.832 86.4403C345.832 88.7244 346.139 90.7614 346.753 92.5511C347.384 94.3409 348.313 95.7557 349.54 96.7955C350.784 97.8182 352.318 98.3295 354.142 98.3295Z" fill="#1B9E75" fill-opacity="0.82"/>
<path d="M181.023 77.9261L171.051 78.5398C170.881 77.6875 170.514 76.9205 169.952 76.2386C169.389 75.5398 168.648 74.9858 167.727 74.5767C166.824 74.1506 165.741 73.9375 164.48 73.9375C162.793 73.9375 161.369 74.2955 160.21 75.0114C159.051 75.7102 158.472 76.6477 158.472 77.8239C158.472 78.7614 158.847 79.554 159.597 80.2017C160.347 80.8494 161.634 81.3693 163.457 81.7614L170.565 83.1932C174.384 83.9773 177.23 85.2386 179.105 86.9773C180.98 88.7159 181.918 91 181.918 93.8295C181.918 96.4034 181.159 98.6619 179.642 100.605C178.142 102.548 176.08 104.065 173.455 105.156C170.847 106.23 167.838 106.767 164.429 106.767C159.23 106.767 155.088 105.685 152.003 103.52C148.935 101.338 147.136 98.3722 146.608 94.6222L157.321 94.0597C157.645 95.6449 158.429 96.8551 159.673 97.6903C160.918 98.5085 162.511 98.9176 164.455 98.9176C166.364 98.9176 167.898 98.5511 169.057 97.8182C170.233 97.0682 170.83 96.1051 170.847 94.929C170.83 93.9403 170.412 93.1307 169.594 92.5C168.776 91.8523 167.514 91.358 165.81 91.017L159.009 89.6619C155.173 88.8949 152.318 87.5653 150.443 85.6733C148.585 83.7812 147.656 81.3693 147.656 78.4375C147.656 75.9148 148.338 73.7415 149.702 71.9176C151.082 70.0938 153.017 68.6875 155.506 67.6989C158.011 66.7102 160.943 66.2159 164.301 66.2159C169.261 66.2159 173.165 67.2642 176.011 69.3608C178.875 71.4574 180.545 74.3125 181.023 77.9261ZM206.674 106.767C202.634 106.767 199.157 105.949 196.242 104.312C193.344 102.659 191.112 100.324 189.543 97.3068C187.975 94.2727 187.191 90.6847 187.191 86.5426C187.191 82.5028 187.975 78.9574 189.543 75.9062C191.112 72.8551 193.319 70.4773 196.165 68.7727C199.029 67.0682 202.387 66.2159 206.239 66.2159C208.83 66.2159 211.242 66.6335 213.475 67.4688C215.725 68.2869 217.685 69.5227 219.356 71.1761C221.043 72.8295 222.356 74.9091 223.293 77.4148C224.231 79.9034 224.7 82.8182 224.7 86.1591V89.1506H191.538V82.4006H214.447C214.447 80.8324 214.106 79.4432 213.424 78.233C212.742 77.0227 211.796 76.0767 210.586 75.3949C209.393 74.696 208.004 74.3466 206.418 74.3466C204.765 74.3466 203.299 74.7301 202.021 75.4972C200.759 76.2472 199.771 77.2614 199.055 78.5398C198.339 79.8011 197.972 81.2074 197.955 82.7585V89.1761C197.955 91.1193 198.313 92.7983 199.029 94.2131C199.762 95.6278 200.793 96.7188 202.123 97.4858C203.452 98.2528 205.029 98.6364 206.853 98.6364C208.063 98.6364 209.171 98.4659 210.177 98.125C211.183 97.7841 212.043 97.2727 212.759 96.5909C213.475 95.9091 214.021 95.0739 214.396 94.0852L224.469 94.75C223.958 97.1705 222.91 99.2841 221.325 101.091C219.756 102.881 217.728 104.278 215.239 105.284C212.768 106.273 209.913 106.767 206.674 106.767ZM242.7 83.2955V106H231.808V66.7273H242.188V73.6562H242.648C243.518 71.3722 244.975 69.5653 247.021 68.2358C249.066 66.8892 251.546 66.2159 254.461 66.2159C257.188 66.2159 259.566 66.8125 261.594 68.0057C263.623 69.1989 265.2 70.9034 266.325 73.1193C267.45 75.3182 268.012 77.9432 268.012 80.9943V106H257.12V82.9375C257.137 80.5341 256.523 78.6591 255.279 77.3125C254.035 75.9489 252.322 75.267 250.14 75.267C248.674 75.267 247.379 75.5824 246.254 76.2131C245.146 76.8437 244.276 77.7642 243.646 78.9744C243.032 80.1676 242.717 81.608 242.7 83.2955ZM276.392 106V99.5057L295.619 75.7017V75.4205H277.057V66.7273H308.736V73.8097L290.685 97.0256V97.3068H309.401V106H276.392ZM317.729 106V66.7273H328.621V106H317.729ZM323.201 61.6648C321.582 61.6648 320.192 61.1278 319.033 60.054C317.891 58.9631 317.32 57.6591 317.32 56.142C317.32 54.642 317.891 53.3551 319.033 52.2812C320.192 51.1903 321.582 50.6449 323.201 50.6449C324.82 50.6449 326.201 51.1903 327.343 52.2812C328.502 53.3551 329.082 54.642 329.082 56.142C329.082 57.6591 328.502 58.9631 327.343 60.054C326.201 61.1278 324.82 61.6648 323.201 61.6648ZM355.091 106.767C351.119 106.767 347.685 105.923 344.787 104.236C341.906 102.531 339.682 100.162 338.114 97.1278C336.545 94.0767 335.761 90.5398 335.761 86.517C335.761 82.4602 336.545 78.9148 338.114 75.8807C339.682 72.8295 341.906 70.4602 344.787 68.7727C347.685 67.0682 351.119 66.2159 355.091 66.2159C359.062 66.2159 362.489 67.0682 365.369 68.7727C368.267 70.4602 370.5 72.8295 372.068 75.8807C373.636 78.9148 374.42 82.4602 374.42 86.517C374.42 90.5398 373.636 94.0767 372.068 97.1278C370.5 100.162 368.267 102.531 365.369 104.236C362.489 105.923 359.062 106.767 355.091 106.767ZM355.142 98.3295C356.949 98.3295 358.457 97.8182 359.668 96.7955C360.878 95.7557 361.79 94.3409 362.403 92.5511C363.034 90.7614 363.349 88.7244 363.349 86.4403C363.349 84.1562 363.034 82.1193 362.403 80.3295C361.79 78.5398 360.878 77.125 359.668 76.0852C358.457 75.0455 356.949 74.5256 355.142 74.5256C353.318 74.5256 351.784 75.0455 350.54 76.0852C349.313 77.125 348.384 78.5398 347.753 80.3295C347.139 82.1193 346.832 84.1562 346.832 86.4403C346.832 88.7244 347.139 90.7614 347.753 92.5511C348.384 94.3409 349.313 95.7557 350.54 96.7955C351.784 97.8182 353.318 98.3295 355.142 98.3295Z" fill="black" fill-opacity="0.01"/>
</svg>
