<svg width="520" height="160" viewBox="0 0 520 160" fill="none" xmlns="http://www.w3.org/2000/svg">
<g clip-path="url(#clip0_110_3)">
<path d="M815.75 -91H-295.75V251H815.75V-91Z" fill="white"/>
<path d="M89.0492 75.567L67.7341 76.8788C67.3707 75.057 66.5862 73.4175 65.385 71.96C64.1816 70.4663 62.5977 69.2821 60.6291 68.4077C58.6989 67.4969 56.384 67.0414 53.6886 67.0414C50.0826 67.0414 47.0388 67.8066 44.5615 69.3368C42.0841 70.8305 40.8465 72.8344 40.8465 75.3486C40.8465 77.3525 41.648 79.0466 43.2512 80.4311C44.8543 81.8156 47.6053 82.9268 51.5019 83.765L66.6953 86.8254C74.8584 88.5015 80.9417 91.1975 84.9495 94.914C88.9573 98.6302 90.9623 103.512 90.9623 109.561C90.9623 115.062 89.3399 119.89 86.0974 124.043C82.8911 128.196 78.4836 131.439 72.8726 133.771C67.298 136.067 60.8663 137.214 53.5796 137.214C42.4667 137.214 33.6132 134.902 27.019 130.274C20.4612 125.61 16.6158 119.271 15.4872 111.255L38.3862 110.053C39.0788 113.441 40.7546 116.028 43.4136 117.813C46.0748 119.562 49.4798 120.436 53.6351 120.436C57.7156 120.436 60.9946 119.653 63.4719 118.086C65.9856 116.483 67.2617 114.425 67.298 111.911C67.2617 109.797 66.3682 108.067 64.6197 106.719C62.8713 105.334 60.1737 104.278 56.5314 103.549L41.9943 100.652C33.7949 99.0128 27.6923 96.1708 23.6845 92.1267C19.713 88.0823 17.7273 82.9269 17.7273 76.6601C17.7273 71.2679 19.185 66.6224 22.1006 62.7238C25.0503 58.8255 29.1864 55.8195 34.5066 53.7064C39.8611 51.593 46.1282 50.5365 53.306 50.5365C63.908 50.5365 72.2528 52.7772 78.3361 57.2587C84.4579 61.7402 88.0275 67.8429 89.0492 75.567ZM143.878 137.214C135.243 137.214 127.811 135.466 121.58 131.967C115.385 128.434 110.614 123.443 107.261 116.993C103.909 110.508 102.233 102.839 102.233 93.9848C102.233 85.3497 103.909 77.7714 107.261 71.2495C110.614 64.7277 115.332 59.6452 121.415 56.0016C127.537 52.3582 134.715 50.5365 142.948 50.5365C148.487 50.5365 153.642 51.4291 158.415 53.2145C163.225 54.9632 167.414 57.6047 170.986 61.1389C174.592 64.673 177.399 69.1182 179.401 74.4741C181.406 79.7935 182.409 86.0239 182.409 93.1651V99.5594H111.525V85.1312H160.493C160.493 81.7792 159.764 78.8098 158.306 76.223C156.849 73.636 154.827 71.6139 152.24 70.1566C149.69 68.6627 146.721 67.9158 143.331 67.9158C139.798 67.9158 136.664 68.7356 133.932 70.3752C131.235 71.9784 129.123 74.1462 127.593 76.8788C126.062 79.5748 125.278 82.5808 125.241 85.8963V99.6139C125.241 103.767 126.007 107.356 127.537 110.38C129.104 113.404 131.308 115.736 134.15 117.376C136.991 119.015 140.362 119.835 144.261 119.835C146.847 119.835 149.216 119.471 151.366 118.742C153.516 118.013 155.355 116.92 156.885 115.463C158.415 114.006 159.582 112.22 160.384 110.107L181.915 111.528C180.823 116.702 178.583 121.22 175.195 125.082C171.841 128.908 167.506 131.894 162.186 134.045C156.904 136.159 150.802 137.214 143.878 137.214ZM220.884 87.0441V135.575H197.602V51.6296H219.789V66.4401H220.773C222.632 61.558 225.747 57.6958 230.12 54.854C234.491 51.9756 239.792 50.5365 246.023 50.5365C251.852 50.5365 256.935 51.8117 261.27 54.3622C265.607 56.9126 268.978 60.556 271.382 65.2925C273.787 69.9926 274.988 75.6036 274.988 82.1253V135.575H251.707V86.2789C251.743 81.1416 250.431 77.1338 247.771 74.2554C245.112 71.3407 241.451 69.8832 236.787 69.8832C233.653 69.8832 230.885 70.5573 228.481 71.9055C226.112 73.2534 224.253 75.221 222.906 77.8078C221.593 80.3582 220.92 83.4371 220.884 87.0441ZM292.9 135.575V121.693L333.998 70.8124V70.2113H294.322V51.6296H362.036V66.7682L323.452 116.392V116.993H363.457V135.575H292.9ZM381.258 135.575V51.6296H404.54V135.575H381.258ZM392.955 40.8085C389.494 40.8085 386.523 39.6606 384.046 37.3654C381.605 35.0336 380.384 32.2463 380.384 29.0035C380.384 25.7972 381.605 23.0465 384.046 20.751C386.523 18.4192 389.494 17.2534 392.955 17.2534C396.415 17.2534 399.367 18.4192 401.808 20.751C404.286 23.0465 405.525 25.7972 405.525 29.0035C405.525 32.2463 404.286 35.0336 401.808 37.3654C399.367 39.6606 396.415 40.8085 392.955 40.8085ZM461.12 137.214C452.629 137.214 445.289 135.41 439.095 131.804C432.937 128.16 428.183 123.096 424.831 116.611C421.478 110.089 419.802 102.529 419.802 93.9301C419.802 85.2586 421.478 77.6804 424.831 71.195C428.183 64.673 432.937 59.6086 439.095 56.0016C445.289 52.3582 452.629 50.5365 461.12 50.5365C469.608 50.5365 476.933 52.3582 483.089 56.0016C489.283 59.6086 494.056 64.673 497.408 71.195C500.76 77.6804 502.435 85.2586 502.435 93.9301C502.435 102.529 500.76 110.089 497.408 116.611C494.056 123.096 489.283 128.16 483.089 131.804C476.933 135.41 469.608 137.214 461.12 137.214ZM461.229 119.179C465.091 119.179 468.314 118.086 470.903 115.9C473.489 113.678 475.439 110.654 476.749 106.828C478.098 103.002 478.771 98.6484 478.771 93.7661C478.771 88.8839 478.098 84.53 476.749 80.7043C475.439 76.8788 473.489 73.8547 470.903 71.6321C468.314 69.4097 465.091 68.2984 461.229 68.2984C457.33 68.2984 454.051 69.4097 451.392 71.6321C448.769 73.8547 446.783 76.8788 445.435 80.7043C444.122 84.53 443.466 88.8839 443.466 93.7661C443.466 98.6484 444.122 103.002 445.435 106.828C446.783 110.654 448.769 113.678 451.392 115.9C454.051 118.086 457.33 119.179 461.229 119.179Z" fill="#1B9E75"/>
<path d="M91.1867 75.567L69.8715 76.8788C69.5082 75.057 68.7237 73.4175 67.5224 71.96C66.319 70.4663 64.7351 69.2821 62.7665 68.4077C60.8363 67.4969 58.5214 67.0414 55.826 67.0414C52.2201 67.0414 49.1763 67.8066 46.6989 69.3368C44.2216 70.8305 42.9839 72.8344 42.9839 75.3486C42.9839 77.3525 43.7855 79.0466 45.3886 80.4311C46.9917 81.8156 49.7427 82.9268 53.6394 83.765L68.8327 86.8254C76.9958 88.5015 83.0791 91.1975 87.087 94.914C91.0948 98.6302 93.0998 103.512 93.0998 109.561C93.0998 115.062 91.4774 119.89 88.2348 124.043C85.0286 128.196 80.621 131.439 75.0101 133.771C69.4355 136.067 63.0038 137.214 55.717 137.214C44.6042 137.214 35.7506 134.902 29.1565 130.274C22.5986 125.61 18.7532 119.271 17.6246 111.255L40.5237 110.053C41.2162 113.441 42.892 116.028 45.5511 117.813C48.2123 119.562 51.6173 120.436 55.7726 120.436C59.8531 120.436 63.132 119.653 65.6094 118.086C68.1231 116.483 69.3992 114.425 69.4355 111.911C69.3992 109.797 68.5057 108.067 66.7572 106.719C65.0087 105.334 62.3112 104.278 58.6689 103.549L44.1318 100.652C35.9323 99.0128 29.8297 96.1708 25.8219 92.1267C21.8505 88.0823 19.8647 82.9269 19.8647 76.6601C19.8647 71.2679 21.3225 66.6224 24.238 62.7238C27.1878 58.8255 31.3239 55.8195 36.6441 53.7064C41.9985 51.593 48.2657 50.5365 55.4434 50.5365C66.0454 50.5365 74.3902 52.7772 80.4735 57.2587C86.5953 61.7402 90.165 67.8429 91.1867 75.567ZM146.016 137.214C137.38 137.214 129.948 135.466 123.717 131.967C117.523 128.434 112.752 123.443 109.398 116.993C106.047 110.508 104.371 102.839 104.371 93.9848C104.371 85.3497 106.047 77.7714 109.398 71.2495C112.752 64.7277 117.469 59.6452 123.553 56.0016C129.675 52.3582 136.852 50.5365 145.086 50.5365C150.624 50.5365 155.78 51.4291 160.553 53.2145C165.362 54.9632 169.552 57.6047 173.123 61.1389C176.729 64.673 179.536 69.1182 181.539 74.4741C183.544 79.7935 184.546 86.0239 184.546 93.1651V99.5594H113.662V85.1312H162.631C162.631 81.7792 161.902 78.8098 160.444 76.223C158.986 73.636 156.964 71.6139 154.378 70.1566C151.828 68.6627 148.859 67.9158 145.469 67.9158C141.935 67.9158 138.802 68.7356 136.07 70.3752C133.372 71.9784 131.261 74.1462 129.73 76.8788C128.2 79.5748 127.415 82.5808 127.379 85.8963V99.6139C127.379 103.767 128.144 107.356 129.675 110.38C131.241 113.404 133.445 115.736 136.288 117.376C139.129 119.015 142.5 119.835 146.398 119.835C148.985 119.835 151.353 119.471 153.503 118.742C155.654 118.013 157.492 116.92 159.022 115.463C160.553 114.006 161.72 112.22 162.521 110.107L184.053 111.528C182.96 116.702 180.72 121.22 177.332 125.082C173.978 128.908 169.644 131.894 164.323 134.045C159.042 136.159 152.939 137.214 146.016 137.214ZM223.021 87.0441V135.575H199.74V51.6296H221.927V66.4401H222.91C224.77 61.558 227.884 57.6958 232.257 54.854C236.629 51.9756 241.93 50.5365 248.16 50.5365C253.989 50.5365 259.072 51.8117 263.407 54.3622C267.744 56.9126 271.115 60.556 273.52 65.2925C275.924 69.9926 277.126 75.6036 277.126 82.1253V135.575H253.844V86.2789C253.88 81.1416 252.568 77.1338 249.909 74.2554C247.25 71.3407 243.588 69.8832 238.924 69.8832C235.791 69.8832 233.023 70.5573 230.618 71.9055C228.25 73.2534 226.39 75.221 225.043 77.8078C223.731 80.3582 223.058 83.4371 223.021 87.0441ZM295.038 135.575V121.693L336.136 70.8124V70.2113H296.459V51.6296H364.173V66.7682L325.589 116.392V116.993H365.595V135.575H295.038ZM383.396 135.575V51.6296H406.677V135.575H383.396ZM395.092 40.8085C391.632 40.8085 388.66 39.6606 386.183 37.3654C383.742 35.0336 382.522 32.2463 382.522 29.0035C382.522 25.7972 383.742 23.0465 386.183 20.751C388.66 18.4192 391.632 17.2534 395.092 17.2534C398.553 17.2534 401.505 18.4192 403.946 20.751C406.423 23.0465 407.663 25.7972 407.663 29.0035C407.663 32.2463 406.423 35.0336 403.946 37.3654C401.505 39.6606 398.553 40.8085 395.092 40.8085ZM463.257 137.214C454.767 137.214 447.427 135.41 441.232 131.804C435.074 128.16 430.32 123.096 426.969 116.611C423.615 110.089 421.939 102.529 421.939 93.9301C421.939 85.2586 423.615 77.6804 426.969 71.195C430.32 64.673 435.074 59.6086 441.232 56.0016C447.427 52.3582 454.767 50.5365 463.257 50.5365C471.745 50.5365 479.07 52.3582 485.226 56.0016C491.421 59.6086 496.194 64.673 499.545 71.195C502.897 77.6804 504.573 85.2586 504.573 93.9301C504.573 102.529 502.897 110.089 499.545 116.611C496.194 123.096 491.421 128.16 485.226 131.804C479.07 135.41 471.745 137.214 463.257 137.214ZM463.366 119.179C467.229 119.179 470.452 118.086 473.04 115.9C475.627 113.678 477.576 110.654 478.886 106.828C480.235 103.002 480.909 98.6484 480.909 93.7661C480.909 88.8839 480.235 84.53 478.886 80.7043C477.576 76.8788 475.627 73.8547 473.04 71.6321C470.452 69.4097 467.229 68.2984 463.366 68.2984C459.467 68.2984 456.188 69.4097 453.529 71.6321C450.907 73.8547 448.921 76.8788 447.572 80.7043C446.26 84.53 445.603 88.8839 445.603 93.7661C445.603 98.6484 446.26 103.002 447.572 106.828C448.921 110.654 450.907 113.678 453.529 115.9C456.188 118.086 459.467 119.179 463.366 119.179Z" fill="#1B9E75"/>
</g>
<defs>
<clipPath id="clip0_110_3">
<rect width="520" height="160" fill="white"/>
</clipPath>
</defs>
</svg>
